<?xml version="1.0" encoding="utf-8"?>
<!-- Generator: Adobe Illustrator 16.0.0, SVG Export Plug-In . SVG Version: 6.00 Build 0)  -->
<!DOCTYPE svg PUBLIC "-//W3C//DTD SVG 1.1//EN" "http://www.w3.org/Graphics/SVG/1.1/DTD/svg11.dtd">
<svg version="1.1" id="Layer_1" xmlns="http://www.w3.org/2000/svg" xmlns:xlink="http://www.w3.org/1999/xlink" x="0px" y="0px"
	 width="234.604px" height="56.342px" viewBox="0 0 234.604 56.342" enable-background="new 0 0 234.604 56.342"
	 xml:space="preserve">
<g>
	<path fill-rule="evenodd" clip-rule="evenodd" fill="#231F20" d="M164.736,18.093c0.719-2.161,1.39-4.339,2.167-6.479
		c1.304-3.588,2.774-7.106,5.484-9.911c1.995-2.065,4.432-1.999,6.904-1.136c2.127,0.742,2.953,2.567,3.325,4.604
		c0.893,4.888-0.029,9.459-2.267,13.884c-2.229,4.409-5.064,8.375-8.154,12.19c-0.124,0.151-0.248,0.309-0.337,0.481
		c-0.101,0.196-0.162,0.413-0.375,0.98c0.521-0.331,0.792-0.438,0.975-0.631c0.624-0.657,1.188-1.374,1.827-2.016
		c2.777-2.788,6.501-2.391,8.726,0.915c1.175,1.746,1.902,3.641,1.774,5.777c-0.108,1.815-0.115,3.659-0.468,5.43
		c-0.339,1.701-1.065,3.326-1.701,5.22c1.159-0.595,2.283-1.073,3.3-1.719c1.087-0.69,2.096-1.511,3.088-2.336
		c0.275-0.229,0.54-0.69,0.52-1.027c-0.426-6.885,0.779-13.539,2.689-20.113c1.254-4.317,2.79-8.513,4.932-12.47
		c1.65-3.049,3.425-6.021,6.292-8.124c1.658-1.215,3.52-1.902,5.59-1.455c1.079,0.233,1.746,1.089,2.18,2.112
		c0.971,2.289,0.86,4.682,0.576,7.049c-0.865,7.226-4.073,13.595-7.446,19.894c-2.013,3.757-4.131,7.463-6,11.291
		c-1.203,2.462-1.821,5.092-0.344,7.773c0.443,0.803,1.024,1.04,1.744,0.682c1.921-0.957,3.816-1.974,5.676-3.047
		c0.322-0.186,0.587-0.764,0.59-1.163c0.02-2.756,0.442-5.427,1.459-7.995c1.228-3.105,2.955-5.872,5.982-7.476
		c4.116-2.181,9.776-0.983,11.471,3.064c1.263,3.015,0.615,5.787-1.173,8.298c-2.14,3.004-5.096,4.988-8.583,6.184
		c-0.458,0.156-0.893,0.38-1.349,0.577c1.434,2.793,2.84,3.039,5.471,2.488c3.818-0.799,7.065-2.834,10.049-5.297
		c0.576-0.475,1.165-0.934,1.839-1.472c1.111,1.279,2.256,2.596,3.436,3.953c-3.301,3.499-7.459,6.539-12.492,8.222
		c-3.051,1.02-6.183,1.334-9.283,0.146c-1.728-0.661-3.237-1.657-4.269-3.265c-0.143-0.222-0.397-0.371-0.353-0.33
		c-3.171,1.369-6.093,2.914-9.194,3.89c-2.97,0.934-4.674,0.514-6.714-3.29c-0.642-1.196-1.116-2.482-1.688-3.775
		c-0.988,0.548-1.922,1.203-2.953,1.611c-2.511,0.991-5.087,1.816-7.594,2.814c-1.066,0.424-2.07,1.049-3.027,1.694
		c-2.508,1.69-5.211,1.453-7.883,0.73c-2.142-0.578-4.19-1.491-6.304-2.187c-0.343-0.112-0.884,0.026-1.198,0.244
		c-1.636,1.13-3.205,2.345-5.282,2.602c-3.322,0.411-4.618-1.124-6.035-3.852c-0.107-0.207-0.203-0.42-0.238-0.492
		c-1.878,1.171-3.66,2.456-5.592,3.452c-4.471,2.306-9.388,0.209-10.674-4.924c-0.257-1.022-0.279-2.104-0.416-3.204
		c-0.729,0.134-1.483,0.254-2.23,0.411c-3.451,0.723-6.337-1.271-7.233-4.303c-0.479-1.618-0.798-3.284-1.209-4.923
		c-0.061-0.243-0.226-0.459-0.343-0.688c-0.168,0.218-0.402,0.412-0.493,0.658c-1.601,4.354-3.165,8.719-4.782,13.066
		c-0.462,1.241-0.996,2.467-1.617,3.637c-0.978,1.841-3.75,1.332-4.461-0.078c-0.572-1.137-0.889-2.402-1.344-3.681
		c-1.151,0.694-2.447,1.526-3.789,2.275c-2.938,1.64-6.07,2.692-9.466,2.617c-3.934-0.086-7.057-1.702-8.968-5.262
		c-0.374-0.695-0.662-0.809-1.359-0.421c-2.782,1.542-5.539,3.151-8.418,4.491c-2.526,1.175-5.21,2.015-7.856,0.151
		c-1.699-1.195-2.773-2.859-3.496-4.774c-0.208-0.55-0.405-1.104-0.692-1.889c-0.076,2.359-1.974,2.899-3.34,3.817
		c-2.782,1.869-5.756,3.411-9.178,3.72c-0.978,0.088-2.018,0.041-2.965-0.197c-2.034-0.514-3.2-2.322-3.267-4.624
		c-0.127-4.371,1.054-8.529,2.031-12.72c0.569-2.439,1.201-4.864,1.818-7.293c0.467-1.841,2.086-2.738,4.588-2.916
		c2.731-0.193,3.182,0.45,2.494,3.16c-1.077,4.239-2.231,8.46-3.22,12.719c-0.335,1.446-0.362,2.986-0.358,4.483
		c0.004,1.693,1.015,2.433,2.564,1.815c1.249-0.498,2.441-1.215,3.532-2.009c1.459-1.061,2.808-2.275,4.172-3.461
		c0.188-0.163,0.271-0.54,0.269-0.816c-0.032-4.127-0.099-8.254-0.126-12.381c-0.004-0.702,0.239-1.416,0.169-2.105
		c-0.03-0.303-0.522-0.735-0.864-0.801c-1.923-0.372-3.864-0.65-5.799-0.958c-1.124-0.179-1.309-1.006-1.28-1.926
		c0.03-0.953,0.815-1.276,1.53-1.33c1.735-0.132,3.487-0.198,5.224-0.114c1.814,0.087,2.076-0.021,2.456-1.822
		c0.975-4.621,2.372-9.113,4.727-13.216c0.986-1.718,2.184-3.539,3.755-4.649c2.988-2.111,6.064-0.921,7.472,2.736
		c1.597,4.146,0.8,8.14-1.117,11.981c-0.944,1.892-1.973,3.742-3.083,5.837c0.92,0.069,1.718,0.15,2.518,0.186
		c2.07,0.093,4.142,0.145,6.21,0.274c0.278,0.018,0.679,0.336,0.777,0.604c0.657,1.788,0.077,3.536-2.361,3.455
		c-3.117-0.103-6.239-0.012-9.359-0.033c-0.79-0.006-1.313,0.248-1.759,0.948c-0.584,0.918-1.401,1.688-1.997,2.6
		c-0.394,0.604-0.782,1.334-0.817,2.027c-0.162,3.146-0.337,6.304-0.238,9.448c0.087,2.746,1.069,4.446,3.593,4.771
		c1.225,0.157,2.687-0.265,3.812-0.858c2.44-1.289,4.744-2.841,7.073-4.333c0.261-0.167,0.437-0.636,0.46-0.978
		c0.264-3.811,1.249-7.382,3.452-10.548c2.133-3.066,5.011-4.941,8.821-4.694c4.328,0.28,7.054,2.483,7.261,6.986
		c0.114,2.463-0.966,4.633-2.613,6.468c-2.265,2.523-5.06,4.241-8.259,5.326c-0.283,0.096-0.551,0.234-0.827,0.354
		c1.345,2.979,3.052,3.001,5.375,2.537c3.706-0.738,6.741-2.923,9.85-4.979c2.277-1.507,1.862-3.824,2.379-5.873
		c0.778-3.084,1.411-6.204,2.202-9.284c0.343-1.335,2.983-2.254,4.155-1.493c0.29,0.188,0.464,0.74,0.481,1.134
		c0.082,1.875,0.081,3.754,0.136,5.631c0.013,0.438,0.13,0.875,0.199,1.312c0.111,0.018,0.222,0.036,0.333,0.054
		c0.467-0.93,0.915-1.869,1.405-2.787c1.008-1.888,2.211-3.622,4.031-4.832c1.678-1.115,4.432-0.775,4.988,0.773
		c0.337,0.938,0.183,2.09,0.1,3.134c-0.142,1.768-0.526,3.521-0.581,5.289c-0.094,3.03,1.647,3.569,4.151,3.08
		c2.486-0.486,3.111-2.433,4.145-4.158c2.173-3.629,5.001-6.557,9.022-8.101c0.972-0.374,2.071-0.557,3.111-0.551
		c0.605,0.003,1.398,0.41,1.772,0.894c0.864,1.118,1.92,1.399,3.222,1.275c1.966-0.187,2.635,0.763,2.667,2.269
		c0.071,3.279-0.971,6.374-1.323,9.574c-0.219,1.988-0.35,3.994-0.362,5.992c-0.008,1.245,1.016,1.783,2.152,1.295
		c0.502-0.216,0.978-0.489,1.473-0.721c1.144-0.533,1.321-1.596,1.441-2.666c0.353-3.142,0.611-6.296,1.04-9.428
		c0.416-3.037,0.947-6.062,1.521-9.074c0.522-2.736,1.17-5.449,1.762-8.171C164.55,19.038,164.644,18.565,164.736,18.093z
		 M168.312,29.371c1.108-1.863,2.216-3.727,3.325-5.589c2.2-3.694,4.155-7.508,5.184-11.709c0.372-1.519,0.564-3.11,0.587-4.672
		c0.009-0.604-0.541-1.479-1.083-1.765c-0.701-0.372-1.331,0.207-1.776,0.922c-1.67,2.683-2.564,5.67-3.297,8.685
		c-1.125,4.641-2.059,9.328-3.072,13.996c-0.022,0.093-0.045,0.186-0.067,0.278C168.178,29.467,168.245,29.419,168.312,29.371z
		 M178.433,39c0-0.12-0.017-0.242,0.003-0.359c0.425-2.583-1.995-4.531-4.815-3.861c-2.572,0.611-4.18,2.279-4.813,4.54
		c-0.875,3.117-1.222,6.384-1.728,9.598c-0.041,0.259,0.383,0.766,0.689,0.87c0.928,0.318,1.897,0.523,2.86,0.723
		c2.436,0.505,4.286-0.268,5.563-2.471C177.821,45.232,178.214,42.144,178.433,39z M150.233,33.738
		c-1.683-0.056-3.927,1.091-5.018,2.401c-1.854,2.225-3.371,4.663-3.878,7.53c-0.302,1.709-0.347,3.521-0.143,5.244
		c0.194,1.638,1.724,2.173,3.216,1.365c1.812-0.981,2.54-2.785,3.017-4.574C148.472,41.785,149.294,37.806,150.233,33.738z
		 M196.611,32.317c0.146,0.026,0.29,0.054,0.435,0.081c0.161-0.219,0.358-0.419,0.479-0.657c2.406-4.778,4.945-9.491,6.609-14.612
		c0.91-2.8,1.937-5.559,1.884-8.559c-0.007-0.353-0.214-0.999-0.325-0.999c-0.423,0.001-0.938,0.103-1.251,0.366
		c-1.799,1.508-2.938,3.523-3.663,5.678c-1.215,3.612-2.339,7.271-3.203,10.979C196.989,27.107,196.915,29.738,196.611,32.317z
		 M78.644,12.824c-0.099-0.036-0.197-0.071-0.296-0.107c0-0.279,0.104-0.623-0.02-0.827c-0.343-0.562-0.692-1.337-1.21-1.509
		c-0.426-0.14-1.23,0.343-1.625,0.772c-0.488,0.53-0.841,1.254-1.053,1.956c-1.058,3.498-2.062,7.013-3.042,10.533
		c-0.084,0.303,0.069,0.945,0.237,0.993c0.444,0.126,1.002,0.127,1.426-0.042c0.311-0.125,0.525-0.576,0.708-0.921
		c0.95-1.786,1.958-3.546,2.786-5.388C77.352,16.509,77.955,14.647,78.644,12.824z M97.509,33.619
		c-0.497,0.253-1.51,0.561-2.253,1.188c-2.203,1.857-2.265,4.555-2.488,7.144c-0.014,0.162,0.562,0.579,0.755,0.521
		c0.925-0.283,1.882-0.576,2.7-1.074c1.722-1.048,3.316-2.284,3.792-4.412C100.385,35.332,99.324,33.612,97.509,33.619z
		 M213.112,42.824c1.318-0.547,2.431-0.855,3.376-1.436c1.714-1.053,3.389-2.282,3.755-4.433c0.287-1.688-0.547-3.679-2.261-3.29
		c-0.949,0.216-1.936,0.7-2.673,1.334c-1.664,1.433-1.997,3.499-2.188,5.562C213.061,41.224,213.112,41.896,213.112,42.824z
		 M182.724,47.414c-0.089-0.071-0.16-0.157-0.187-0.146c-0.088,0.041-0.16,0.117-0.238,0.18c0.057,0.042,0.122,0.128,0.166,0.117
		C182.553,47.546,182.629,47.474,182.724,47.414z"/>
	<path fill-rule="evenodd" clip-rule="evenodd" fill="#231F20" d="M4.223,24.788c3.322-0.857,6.648-1.698,9.965-2.574
		c3.898-1.029,7.78-2.125,11.693-3.095c0.629-0.156,1.385,0.198,2.083,0.316c-0.029,0.031-0.059,0.061-0.087,0.091
		c-0.071,0.072-0.143,0.144-0.214,0.216l-0.018,0.019c-0.073,0.074-0.146,0.147-0.22,0.221l-0.018,0.021
		c-0.074,0.151-0.148,0.301-0.222,0.452l-0.022,0.028c-0.152,0.153-0.305,0.305-0.457,0.458l-0.023,0.022
		c-0.071,0.072-0.143,0.143-0.215,0.215l-0.021,0.026c-0.153,0.231-0.306,0.462-0.458,0.694l-0.028,0.028
		c-0.07,0.071-0.141,0.141-0.211,0.211l-0.023,0.027c-0.232,0.311-0.464,0.622-0.696,0.933l-0.026,0.03
		c-0.151,0.137-0.302,0.273-0.453,0.41c-0.663-0.016-1.365-0.182-1.982-0.022c-4.698,1.219-9.375,2.522-14.069,3.755
		c-1.876,0.493-3.781,0.873-5.672,1.304c0.042-0.299,0.084-0.598,0.127-0.897l-0.006,0.008c0.159-0.404,0.317-0.808,0.476-1.211
		C3.689,25.913,3.956,25.351,4.223,24.788z"/>
	<path fill-rule="evenodd" clip-rule="evenodd" fill="#231F20" d="M58.174,14.934c0.504,0.089,1.035,0.208,1.571,0.273
		c3.301,0.403,3.795,3.613,2.955,5.906c-0.953,2.599-4.11,3.297-6.011,3.075c-0.531-0.062-1.057-0.219-1.57-0.381
		c-2.355-0.745-2.609-2.58-2.516-4.268c0.134-2.438,1.553-3.574,3.439-4.271C56.687,15.03,57.424,15.043,58.174,14.934z"/>
	<path fill-rule="evenodd" clip-rule="evenodd" fill="#231F20" d="M40.971,43.531c-1.2,1.853-2.212,3.864-3.63,5.53
		c-9.219,10.834-26.769,9.433-34.386-3.25c-0.203-0.337-0.348-0.709-0.52-1.065c0.39-0.327,0.78-0.654,1.17-0.981
		c0.099,0.073,0.197,0.147,0.295,0.221h0c0.08,0.16,0.161,0.32,0.241,0.479l0-0.001c0.079,0.082,0.158,0.164,0.237,0.245
		l-0.002-0.002c0.081,0.159,0.163,0.319,0.244,0.479l0,0c0.078,0.083,0.156,0.167,0.233,0.25l-0.004-0.007
		C4.932,45.619,5.016,45.81,5.1,46c0.08,0.128,0.16,0.255,0.24,0.382c0.081,0.082,0.162,0.164,0.242,0.246l-0.004-0.006
		c0.093,0.161,0.186,0.321,0.279,0.482c0.211,0.175,0.423,0.351,0.634,0.526c0.022,0.062,0.038,0.125,0.045,0.19
		c0.102,0.158,0.203,0.315,0.304,0.474c1.573,1.219,3.146,2.438,4.72,3.658c9.062,5.614,22.02,2.059,27.153-7.448
		c0.189-0.351,0.394-0.691,0.592-1.037C39.861,43.489,40.416,43.51,40.971,43.531z"/>
	<path fill-rule="evenodd" clip-rule="evenodd" fill="#231F20" d="M11.561,51.953c-1.573-1.22-3.146-2.439-4.72-3.658
		c-0.033-0.149-0.066-0.298-0.099-0.447c0.092-0.004,0.183-0.009,0.275-0.014c0.447,0.327,0.869,0.698,1.35,0.966
		c0.294,0.163,0.724,0.311,1.014,0.219c3.304-1.05,6.598-2.135,9.883-3.241c0.895-0.301,1.753-0.708,2.629-1.066
		c0.398,0.159,0.796,0.319,1.194,0.479c1.193,0.48,2.386,0.963,3.579,1.444c-0.109,1.089-0.943,1.386-1.805,1.617
		c-3.993,1.074-7.991,2.131-11.983,3.207C12.427,51.58,11.999,51.786,11.561,51.953z"/>
	<path fill-rule="evenodd" clip-rule="evenodd" fill="#231F20" d="M29.206,16.439c-0.198-0.032-0.395-0.064-0.592-0.097
		c-1.209-0.917-2.535-1.419-4.078-1.158c-0.161-0.017-0.322-0.034-0.483-0.051c-0.053-0.105-0.105-0.301-0.159-0.301
		c-1.656-0.014-3.312-0.012-4.968,0.007c-0.052,0-0.102,0.199-0.153,0.305c-0.161,0.013-0.322,0.026-0.484,0.039
		c-0.289-0.05-0.614-0.214-0.86-0.134c-1.64,0.537-3.302,1.038-4.875,1.733c-0.887,0.393-1.62,1.134-2.422,1.719
		c-0.055,0.048-0.118,0.071-0.191,0.069c-0.257,0.214-0.513,0.429-0.77,0.643c-0.048,0.051-0.107,0.079-0.178,0.082
		c-0.181,0.15-0.361,0.301-0.542,0.452l-0.002,0.002c-0.639,0.637-1.277,1.274-1.916,1.912c-0.118,0.09-0.235,0.18-0.353,0.27
		c-0.453-0.204-0.906-0.407-1.359-0.611c2.574-3.455,6.023-5.678,10.091-6.901c7.227-2.173,13.875-0.913,19.892,3.642
		c0.215,0.163,0.374,0.399,0.559,0.602c-0.167,0.515-0.334,1.028-0.501,1.543c-1.362-0.962-2.725-1.923-4.087-2.885
		C30.25,17.027,29.728,16.733,29.206,16.439z"/>
	<path fill-rule="evenodd" clip-rule="evenodd" fill="#231F20" d="M31.195,30.311c0.633,2.486,1.267,4.971,1.901,7.457
		c-0.035,0.095-0.069,0.189-0.104,0.284c0,0,0.022,0.01,0.022,0.009c-1.481-0.661-2.961-1.322-4.442-1.982
		c-0.215-0.409-0.429-0.818-0.644-1.228c-0.339-1.432-0.678-2.864-1.017-4.296c-0.069-0.322-0.138-0.645-0.207-0.967
		c0.31-0.156,0.604-0.378,0.932-0.455c0.828-0.193,1.676-0.433,2.506-0.403c0.24,0.008,0.437,0.875,0.683,1.333
		C30.889,30.179,31.069,30.23,31.195,30.311z"/>
	<path fill-rule="evenodd" clip-rule="evenodd" fill="#231F20" d="M31.195,30.311c-0.126-0.081-0.306-0.132-0.368-0.248
		c-0.247-0.457-0.443-1.324-0.683-1.333c-0.831-0.03-1.678,0.21-2.506,0.403c-0.328,0.077-0.623,0.299-0.932,0.455
		c-0.566-1.918-1.131-3.837-1.697-5.755c-0.002-0.234-0.004-0.469-0.007-0.704l0.026-0.03c0.232-0.311,0.464-0.622,0.696-0.933
		c0,0,0.023-0.027,0.022-0.027c0.071-0.07,0.141-0.141,0.212-0.211c0,0,0.028-0.028,0.028-0.028
		c0.153-0.231,0.306-0.463,0.458-0.694l0.021-0.026c0.071-0.072,0.143-0.144,0.215-0.215l0.023-0.022
		c0.152-0.152,0.305-0.305,0.457-0.458c0,0,0.022-0.028,0.022-0.028c0.074-0.151,0.148-0.302,0.222-0.453l0.018-0.021
		c0.073-0.074,0.147-0.147,0.22-0.221c0,0,0.018-0.019,0.018-0.018c0.071-0.072,0.143-0.144,0.214-0.216
		c0.029-0.03,0.058-0.061,0.087-0.091c0.209,0.323,0.518,0.619,0.613,0.972C29.47,23.703,30.327,27.009,31.195,30.311z"/>
	<path fill-rule="evenodd" clip-rule="evenodd" fill="#231F20" d="M27.929,34.851c0.214,0.409,0.428,0.818,0.643,1.227
		c0.332,1.288,0.663,2.577,0.994,3.865c0.089,0.792,0.178,1.585,0.267,2.378c-1.523-0.64-3.047-1.279-4.57-1.919
		c-0.242-0.725-0.484-1.448-0.726-2.172c-0.157-0.72-0.314-1.439-0.472-2.158C25.353,35.664,26.641,35.257,27.929,34.851z"/>
	<path fill-rule="evenodd" clip-rule="evenodd" fill="#231F20" d="M40.16,24.54c0.776,1.972,1.621,3.92,2.295,5.925
		c0.287,0.856,0.31,1.735,1.956,1.186c-0.863,1.382-1.497,2.397-2.273,3.641c-0.89-1.174-1.662-2.191-2.518-3.32
		c0.462-0.107,0.791-0.185,1.239-0.29c-0.179-2.587-1.299-4.856-2.418-7.126C39.014,24.55,39.586,24.545,40.16,24.54z"/>
	<path fill-rule="evenodd" clip-rule="evenodd" fill="#231F20" d="M26.666,46.635c-1.193-0.481-2.386-0.964-3.579-1.444
		c-0.397-0.16-0.796-0.32-1.194-0.479c-0.48-0.316-0.96-0.633-1.439-0.95c-0.321-0.321-0.641-0.643-0.961-0.964
		c1.168-0.302,2.335-0.607,3.505-0.904c0.763-0.193,1.528-0.374,2.292-0.56c0.336,1.017,0.672,2.033,1.007,3.05
		C26.419,45.133,26.542,45.884,26.666,46.635z"/>
	<path fill-rule="evenodd" clip-rule="evenodd" fill="#231F20" d="M4.82,21.32c0.453,0.204,0.906,0.407,1.359,0.611
		c-0.077,0.146-0.154,0.292-0.23,0.439c-0.206,0.245-0.412,0.491-0.618,0.736c-0.083,0.081-0.166,0.161-0.249,0.241
		c-0.075,0.087-0.149,0.173-0.224,0.259C4.646,24,4.434,24.394,4.222,24.788c-0.266,0.562-0.532,1.125-0.799,1.688
		c-0.159,0.403-0.317,0.807-0.476,1.211c0,0,0.006-0.008,0.006-0.008c-0.155,0.434-0.31,0.869-0.464,1.303
		c0.027,0.04,0.025,0.079-0.006,0.117c-0.334,1.29-0.668,2.58-1.002,3.87C0.986,33.124,0.493,33.28,0,33.437
		C0.211,28.843,1.787,24.792,4.82,21.32z"/>
	<path fill-rule="evenodd" clip-rule="evenodd" fill="#231F20" d="M0,33.437c0.493-0.156,0.986-0.312,1.479-0.469
		c0.001,0.871,0.002,1.742,0.003,2.614c0,0.086,0.001,0.171,0.001,0.257c0.083,2.55,0.644,4.974,1.899,7.215
		c0.074,0.237,0.148,0.474,0.223,0.711c-0.39,0.327-0.78,0.654-1.17,0.981c-0.704-2.015-1.408-4.029-2.112-6.044
		c-0.033-0.163-0.065-0.327-0.099-0.491c-0.05-0.475-0.1-0.95-0.15-1.426c-0.024-0.165-0.048-0.329-0.072-0.494
		C0.002,35.34,0.001,34.389,0,33.437z"/>
	<path fill-rule="evenodd" clip-rule="evenodd" fill="#231F20" d="M40.971,43.531c-0.555-0.021-1.11-0.042-1.665-0.063
		c0.634-2.461,1.269-4.922,1.902-7.383c0.114-0.001,0.228-0.003,0.342-0.005c0.252,0.117,0.504,0.234,0.756,0.352
		c0.136,0.117,0.271,0.234,0.406,0.353c-0.045,0.399-0.09,0.799-0.134,1.197c-0.036,0.236-0.072,0.473-0.108,0.709
		c-0.05,0.244-0.1,0.489-0.149,0.733c-0.147,0.529-0.294,1.058-0.441,1.587c-0.069,0.271-0.138,0.541-0.207,0.811
		c-0.089,0.211-0.179,0.422-0.269,0.632C41.259,42.812,41.115,43.172,40.971,43.531z"/>
	<path fill-rule="evenodd" clip-rule="evenodd" fill="#231F20" d="M40.16,24.54c-0.573,0.005-1.146,0.01-1.719,0.016
		c-1.193-1.45-2.387-2.9-3.581-4.351c0.167-0.515,0.334-1.028,0.501-1.543C37.439,20.23,38.94,22.271,40.16,24.54z"/>
	<path fill-rule="evenodd" clip-rule="evenodd" fill="#231F20" d="M26.296,44.383c-0.335-1.017-0.671-2.033-1.007-3.05
		c-0.009-0.311-0.018-0.621-0.026-0.932c1.523,0.64,3.047,1.279,4.57,1.919c-0.453,0.485-0.827,1.109-1.378,1.419
		C27.817,44.098,27.023,44.181,26.296,44.383z"/>
	<path fill-rule="evenodd" clip-rule="evenodd" fill="#231F20" d="M29.566,39.942c-0.331-1.288-0.662-2.577-0.994-3.865
		c1.48,0.661,2.961,1.322,4.442,1.983c-0.146,1.009-0.934,1.256-1.746,1.468C30.704,39.676,30.134,39.805,29.566,39.942z"/>
	<path fill-rule="evenodd" clip-rule="evenodd" fill="#231F20" d="M10.13,18.501c0.802-0.584,1.535-1.326,2.422-1.719
		c1.574-0.695,3.236-1.196,4.875-1.733c0.246-0.081,0.572,0.083,0.86,0.134c-0.361,0.143-0.71,0.345-1.084,0.42
		c-2.241,0.447-4.285,1.351-6.204,2.572C10.744,18.338,10.422,18.395,10.13,18.501z"/>
	<path fill-rule="evenodd" clip-rule="evenodd" fill="#231F20" d="M18.772,15.145c0.051-0.106,0.101-0.304,0.153-0.305
		c1.656-0.019,3.312-0.021,4.968-0.007c0.054,0,0.106,0.196,0.159,0.301C22.292,15.137,20.532,15.141,18.772,15.145z"/>
	<path fill-rule="evenodd" clip-rule="evenodd" fill="#231F20" d="M24.535,15.185c1.543-0.261,2.869,0.241,4.078,1.158
		C27.254,15.957,25.895,15.571,24.535,15.185z"/>
	<path fill-rule="evenodd" clip-rule="evenodd" fill="#231F20" d="M6.532,21.661c0.639-0.638,1.277-1.275,1.916-1.912
		C7.809,20.386,7.17,21.023,6.532,21.661z"/>
	<path fill-rule="evenodd" clip-rule="evenodd" fill="#231F20" d="M42.712,36.784c-0.135-0.118-0.271-0.235-0.406-0.353
		c0.133-0.225,0.266-0.448,0.398-0.673c0.081,0.02,0.162,0.039,0.243,0.058C42.868,36.139,42.79,36.462,42.712,36.784z"/>
	<path fill-rule="evenodd" clip-rule="evenodd" fill="#231F20" d="M29.206,16.439c0.522,0.293,1.045,0.587,1.567,0.881
		C30.25,17.026,29.728,16.733,29.206,16.439z"/>
	<path fill-rule="evenodd" clip-rule="evenodd" fill="#231F20" d="M41.879,41.011c0.147-0.529,0.294-1.058,0.441-1.587
		C42.173,39.953,42.026,40.481,41.879,41.011z"/>
	<path fill-rule="evenodd" clip-rule="evenodd" fill="#231F20" d="M9.17,19.213c0.256-0.214,0.513-0.429,0.77-0.643
		C9.683,18.785,9.427,18.999,9.17,19.213z"/>
	<path fill-rule="evenodd" clip-rule="evenodd" fill="#231F20" d="M5.33,23.106c0.206-0.245,0.413-0.491,0.618-0.736
		C5.742,22.615,5.536,22.861,5.33,23.106z"/>
	<path fill-rule="evenodd" clip-rule="evenodd" fill="#231F20" d="M42.47,38.69c0.036-0.236,0.072-0.473,0.108-0.709
		C42.542,38.218,42.506,38.454,42.47,38.69z"/>
	<path fill-rule="evenodd" clip-rule="evenodd" fill="#231F20" d="M8.45,19.747c0.181-0.151,0.361-0.301,0.542-0.452
		C8.812,19.446,8.631,19.597,8.45,19.747z"/>
	<path fill-rule="evenodd" clip-rule="evenodd" fill="#231F20" d="M41.403,42.453c0.089-0.21,0.179-0.421,0.269-0.632
		C41.582,42.032,41.493,42.243,41.403,42.453z"/>
	<path fill-rule="evenodd" clip-rule="evenodd" fill="#231F20" d="M0.225,38.211c0.033,0.164,0.066,0.328,0.099,0.491
		C0.291,38.539,0.258,38.375,0.225,38.211z"/>
	<path fill-rule="evenodd" clip-rule="evenodd" fill="#231F20" d="M0.002,36.291c0.024,0.165,0.048,0.329,0.072,0.494
		C0.051,36.62,0.026,36.456,0.002,36.291z"/>
	<path fill-rule="evenodd" clip-rule="evenodd" fill="#231F20" d="M41.55,36.08c-0.114,0.002-0.228,0.004-0.342,0.005
		c0.034-0.12,0.067-0.24,0.102-0.361C41.39,35.843,41.469,35.962,41.55,36.08z"/>
	<path fill-rule="evenodd" clip-rule="evenodd" fill="#231F20" d="M32.992,38.052c0.035-0.095,0.069-0.189,0.103-0.284
		C33.061,37.862,33.027,37.957,32.992,38.052z"/>
	<path fill-rule="evenodd" clip-rule="evenodd" fill="#231F20" d="M4.858,23.607c0.075-0.086,0.149-0.172,0.224-0.259
		C5.007,23.435,4.933,23.521,4.858,23.607z"/>
	<path fill-rule="evenodd" clip-rule="evenodd" fill="#231F20" d="M182.724,47.414c-0.095,0.06-0.171,0.132-0.259,0.151
		c-0.044,0.011-0.109-0.075-0.166-0.117c0.078-0.062,0.15-0.139,0.238-0.18C182.563,47.257,182.635,47.343,182.724,47.414z"/>
	<path fill-rule="evenodd" clip-rule="evenodd" fill="#231F20" d="M168.312,29.371c-0.066,0.048-0.134,0.096-0.2,0.145
		c0.022-0.093,0.045-0.186,0.066-0.278C168.224,29.28,168.269,29.325,168.312,29.371z"/>
	<path fill-rule="evenodd" clip-rule="evenodd" fill="#231F20" d="M2.481,29.098c0.032-0.037,0.034-0.076,0.006-0.117
		c0.113-0.136,0.225-0.271,0.338-0.405c1.892-0.431,3.796-0.812,5.672-1.304c4.694-1.232,9.371-2.536,14.069-3.755
		c0.617-0.16,1.319,0.007,1.981,0.023c0.079,0.093,0.157,0.187,0.236,0.28c-0.235,0.356-0.468,0.715-0.706,1.07
		c-0.732,1.092-1.465,2.183-2.198,3.274c-0.078-0.005-0.156-0.008-0.234-0.01c-0.739-0.113-1.54-0.467-2.208-0.299
		c-5.607,1.409-11.19,2.911-16.777,4.4c-0.246,0.065-0.448,0.29-0.671,0.44C2.153,31.496,2.317,30.297,2.481,29.098z"/>
	<path fill-rule="evenodd" clip-rule="evenodd" fill="#231F20" d="M25.724,22.166c-0.232,0.311-0.464,0.622-0.696,0.933
		C25.259,22.788,25.491,22.477,25.724,22.166z"/>
	<path fill-rule="evenodd" clip-rule="evenodd" fill="#231F20" d="M2.826,28.576c-0.113,0.135-0.225,0.27-0.338,0.405
		c0.155-0.434,0.31-0.868,0.464-1.302C2.91,27.978,2.868,28.277,2.826,28.576z"/>
	<path fill-rule="evenodd" clip-rule="evenodd" fill="#231F20" d="M2.946,27.687c0.159-0.404,0.317-0.808,0.476-1.211
		C3.264,26.879,3.105,27.283,2.946,27.687z"/>
	<path fill-rule="evenodd" clip-rule="evenodd" fill="#231F20" d="M26.444,21.206c-0.153,0.231-0.306,0.462-0.458,0.694
		C26.139,21.668,26.292,21.437,26.444,21.206z"/>
	<path fill-rule="evenodd" clip-rule="evenodd" fill="#231F20" d="M27.161,20.484c-0.152,0.153-0.305,0.306-0.457,0.458
		C26.856,20.789,27.009,20.637,27.161,20.484z"/>
	<path fill-rule="evenodd" clip-rule="evenodd" fill="#231F20" d="M24.784,23.819c-0.079-0.093-0.157-0.187-0.236-0.28
		c0.151-0.137,0.302-0.274,0.453-0.411c0.002,0.235,0.004,0.47,0.007,0.704C24.934,23.83,24.859,23.825,24.784,23.819z"/>
	<path fill-rule="evenodd" clip-rule="evenodd" fill="#231F20" d="M27.406,20.003c-0.074,0.151-0.148,0.302-0.222,0.453
		C27.258,20.305,27.332,20.154,27.406,20.003z"/>
	<path fill-rule="evenodd" clip-rule="evenodd" fill="#231F20" d="M27.876,19.526c-0.072,0.072-0.143,0.145-0.214,0.216
		C27.733,19.67,27.805,19.599,27.876,19.526z"/>
	<path fill-rule="evenodd" clip-rule="evenodd" fill="#231F20" d="M27.644,19.761c-0.073,0.074-0.147,0.147-0.22,0.221
		C27.497,19.908,27.57,19.834,27.644,19.761z"/>
	<path fill-rule="evenodd" clip-rule="evenodd" fill="#231F20" d="M26.681,20.964c-0.072,0.072-0.144,0.144-0.215,0.215
		C26.538,21.107,26.609,21.036,26.681,20.964z"/>
	<path fill-rule="evenodd" clip-rule="evenodd" fill="#231F20" d="M25.958,21.927c-0.071,0.071-0.141,0.141-0.212,0.211
		C25.817,22.068,25.888,21.998,25.958,21.927z"/>
	<path fill-rule="evenodd" clip-rule="evenodd" fill="#231F20" d="M5.339,46.382c-0.08-0.127-0.16-0.254-0.239-0.383
		c-0.084-0.19-0.168-0.38-0.251-0.57l0.004,0.007c-0.078-0.083-0.156-0.167-0.233-0.25l0,0c-0.081-0.159-0.163-0.319-0.244-0.479
		l0.002,0.002c-0.079-0.081-0.158-0.163-0.237-0.245l0,0.001c-0.08-0.159-0.161-0.319-0.241-0.479h0
		c-0.016-0.205-0.032-0.41-0.048-0.615c0.27-1.076,1.048,0.011,1.487-0.35l0-0.002c0.4,0.161,0.8,0.321,1.201,0.482l-0.001-0.003
		c0.4,0.161,0.801,0.322,1.201,0.483l-0.002-0.003c0.397,0.08,0.795,0.16,1.192,0.24l-0.008,0.008
		c0.082-0.081,0.163-0.163,0.244-0.245l-0.004,0.003c0.095-0.084,0.189-0.168,0.285-0.252c0.761-1.039,1.523-2.078,2.284-3.117
		c0.547-0.055,1.173-0.309,1.625-0.128c1.284,0.514,2.496,1.205,3.736,1.826c-0.256,0.254-0.467,0.635-0.774,0.742
		c-2.962,1.029-5.92,2.083-8.926,2.971c-1.008,0.298-1.264,0.644-0.841,1.546l-0.06,0.059c-0.211-0.176-0.423-0.352-0.634-0.526
		c-0.093-0.161-0.186-0.321-0.279-0.482l0.004,0.006C5.501,46.546,5.42,46.464,5.339,46.382z"/>
	<path fill-rule="evenodd" clip-rule="evenodd" fill="#231F20" d="M3.853,43.371c0.017,0.204,0.032,0.409,0.048,0.614
		c-0.098-0.073-0.196-0.147-0.295-0.221c-0.075-0.237-0.149-0.474-0.223-0.711c0.044-0.035,0.088-0.069,0.131-0.104
		C3.626,43.091,3.74,43.23,3.853,43.371z"/>
	<path fill-rule="evenodd" clip-rule="evenodd" fill="#231F20" d="M3.9,43.985c0.08,0.16,0.161,0.32,0.241,0.479
		C4.061,44.306,3.98,44.146,3.9,43.985z"/>
	<path fill-rule="evenodd" clip-rule="evenodd" fill="#231F20" d="M4.375,44.707c0.081,0.159,0.163,0.319,0.244,0.479
		C4.538,45.026,4.457,44.866,4.375,44.707z"/>
	<path fill-rule="evenodd" clip-rule="evenodd" fill="#231F20" d="M4.849,45.429c0.083,0.19,0.167,0.38,0.251,0.57
		C5.016,45.81,4.932,45.619,4.849,45.429z"/>
	<path fill-rule="evenodd" clip-rule="evenodd" fill="#231F20" d="M5.578,46.622c0.093,0.161,0.186,0.321,0.279,0.482
		C5.764,46.943,5.671,46.783,5.578,46.622z"/>
	<path fill-rule="evenodd" clip-rule="evenodd" fill="#231F20" d="M7.017,47.834c-0.092,0.005-0.183,0.01-0.274,0.014
		c-0.069-0.003-0.138-0.012-0.206-0.026c-0.008-0.065-0.023-0.129-0.045-0.19l0.06-0.059C6.706,47.66,6.861,47.747,7.017,47.834z"/>
	<path fill-rule="evenodd" clip-rule="evenodd" fill="#231F20" d="M6.537,47.821c0.068,0.015,0.136,0.023,0.206,0.026
		c0.032,0.149,0.065,0.298,0.098,0.447C6.739,48.137,6.638,47.979,6.537,47.821z"/>
	<path fill-rule="evenodd" clip-rule="evenodd" fill="#231F20" d="M4.619,45.186c0.078,0.083,0.156,0.167,0.233,0.25
		C4.775,45.353,4.697,45.269,4.619,45.186z"/>
	<path fill-rule="evenodd" clip-rule="evenodd" fill="#231F20" d="M4.141,44.464c0.079,0.082,0.158,0.164,0.237,0.245
		C4.298,44.628,4.22,44.546,4.141,44.464z"/>
	<path fill-rule="evenodd" clip-rule="evenodd" fill="#231F20" d="M5.339,46.382c0.081,0.082,0.162,0.164,0.242,0.246
		C5.501,46.546,5.42,46.464,5.339,46.382z"/>
	<path fill-rule="evenodd" clip-rule="evenodd" fill="#231F20" d="M7.017,47.834c-0.155-0.087-0.311-0.174-0.466-0.262
		c-0.423-0.902-0.167-1.248,0.841-1.546c3.006-0.888,5.963-1.941,8.926-2.971c0.307-0.107,0.519-0.488,0.774-0.742
		c0.24,0,0.48,0.001,0.721,0.001l-0.005-0.003c0.165,0.161,0.33,0.322,0.495,0.483c0.229-0.001,0.459-0.003,0.688-0.005
		c0.487,0.324,0.974,0.647,1.461,0.971c0.479,0.317,0.959,0.634,1.439,0.95c-0.875,0.358-1.734,0.766-2.629,1.066
		c-3.286,1.106-6.579,2.191-9.883,3.241C9.09,49.11,8.661,48.963,8.367,48.8C7.886,48.532,7.463,48.161,7.017,47.834z"/>
	<path fill-rule="evenodd" clip-rule="evenodd" fill="#231F20" d="M24.784,23.819c0.075,0.006,0.149,0.011,0.224,0.014
		c0.565,1.918,1.131,3.836,1.697,5.755c0.069,0.322,0.138,0.645,0.207,0.967c-1.28,0.401-2.561,0.803-3.841,1.204
		c-0.397-1.199-0.794-2.397-1.191-3.596c0.733-1.091,1.467-2.182,2.199-3.274C24.316,24.534,24.549,24.176,24.784,23.819z"/>
	<path fill-rule="evenodd" clip-rule="evenodd" fill="#231F20" d="M23.07,31.759c1.281-0.401,2.561-0.803,3.841-1.204
		c0.339,1.432,0.678,2.864,1.017,4.296c-1.288,0.406-2.576,0.813-3.863,1.221c-0.078-0.084-0.155-0.167-0.233-0.25
		C23.578,34.467,23.324,33.113,23.07,31.759z"/>
	<path fill-rule="evenodd" clip-rule="evenodd" fill="#231F20" d="M23.833,35.821c0.077,0.083,0.155,0.166,0.232,0.25
		c0.157,0.719,0.314,1.438,0.472,2.158c-0.628,0.247-1.246,0.522-1.885,0.737c-2.17,0.729-4.347,1.437-6.521,2.152
		c-2.657-0.885-2.77-1.021-2.397-2.892c0.501-0.719,1.002-1.437,1.654-2.371c-1.367,0.346-2.523,0.584-3.645,0.934
		c-2.046,0.637-4.059,1.381-6.11,1.996c-1.05,0.315-2.154,0.45-3.234,0.667c-0.151-1.044-0.303-2.088-0.455-3.133
		c0.607-0.186,1.219-0.357,1.82-0.559c4.646-1.552,9.289-3.118,13.941-4.651c0.401-0.132,0.87-0.055,1.307-0.075
		c0,0.157,0,0.313-0.001,0.471c-0.079,0.082-0.158,0.163-0.237,0.245l-0.003,0.003c-0.08,0.079-0.159,0.158-0.238,0.237
		l-0.002,0.003c-0.079,0.078-0.158,0.157-0.237,0.236l-0.003,0.004c-0.079,0.159-0.158,0.317-0.237,0.476l-0.004,0.005
		c-0.079,0.078-0.157,0.157-0.236,0.235l-0.004,0.005c-0.079,0.078-0.157,0.157-0.236,0.235l-0.003,0.004
		c-0.079,0.158-0.157,0.316-0.236,0.475l-0.005,0.007c0,0.079,0.001,0.159,0.001,0.238c-0.458,0.994-0.947,1.977-1.36,2.99
		c-0.147,0.361-0.111,0.798-0.158,1.2c0.379-0.012,0.784,0.06,1.132-0.05C19.249,37.332,21.539,36.57,23.833,35.821z"/>
	<path fill-rule="evenodd" clip-rule="evenodd" fill="#231F20" d="M16.131,41.119c2.174-0.716,4.352-1.424,6.521-2.152
		c0.639-0.215,1.257-0.49,1.885-0.737c0.242,0.724,0.484,1.447,0.726,2.172c0.008,0.311,0.017,0.621,0.026,0.932
		c-0.764,0.186-1.53,0.366-2.292,0.56c-1.169,0.297-2.337,0.603-3.505,0.904c-0.167-0.002-0.333-0.005-0.5-0.007
		c-0.229,0.002-0.459,0.004-0.688,0.005c-0.165-0.161-0.33-0.322-0.495-0.483c0,0,0.005,0.003,0.004,0.003
		C17.252,41.916,16.691,41.518,16.131,41.119z"/>
	<path fill-rule="evenodd" clip-rule="evenodd" fill="#231F20" d="M18.992,42.79c0.167,0.002,0.333,0.005,0.5,0.007
		c0.32,0.321,0.641,0.643,0.961,0.964C19.966,43.438,19.479,43.114,18.992,42.79z"/>
	<path fill-rule="evenodd" clip-rule="evenodd" fill="#231F20" d="M1.944,36.32c0.151,1.045,0.303,2.089,0.455,3.133
		c0.277,0.868,0.554,1.737,0.831,2.606c0.095,0.296,0.189,0.594,0.284,0.891c-0.043,0.034-0.087,0.068-0.131,0.104
		c-1.256-2.241-1.816-4.665-1.899-7.215c0-0.086-0.001-0.171-0.001-0.257c-0.001-0.872-0.002-1.743-0.003-2.614
		c0.334-1.29,0.668-2.58,1.002-3.87c-0.164,1.199-0.328,2.398-0.492,3.596C1.975,33.903,1.959,35.112,1.944,36.32z"/>
	<path fill-rule="evenodd" clip-rule="evenodd" fill="#231F20" d="M1.482,35.582c0,0.086,0.001,0.171,0.001,0.257
		C1.483,35.753,1.483,35.668,1.482,35.582z"/>
	<path fill-rule="evenodd" clip-rule="evenodd" fill="#231F20" d="M1.944,36.32c0.015-1.208,0.03-2.417,0.045-3.626
		c0.223-0.15,0.426-0.375,0.671-0.44c5.586-1.49,11.17-2.991,16.777-4.4c0.669-0.168,1.469,0.187,2.208,0.299
		c-0.877,0.961-1.755,1.921-2.633,2.882c-0.437,0.021-0.906-0.057-1.307,0.075c-4.653,1.533-9.295,3.1-13.941,4.651
		C3.163,35.963,2.551,36.135,1.944,36.32z"/>
	<path fill-rule="evenodd" clip-rule="evenodd" fill="#231F20" d="M19.013,31.035c0.878-0.961,1.755-1.921,2.633-2.882
		c0.078,0.002,0.156,0.005,0.234,0.01c0.396,1.199,0.793,2.397,1.19,3.596c0.253,1.354,0.507,2.708,0.762,4.062
		c-2.293,0.749-4.583,1.511-6.886,2.233c-0.348,0.109-0.753,0.038-1.132,0.05c0.047-0.402,0.011-0.839,0.158-1.2
		c0.413-1.014,0.902-1.996,1.36-2.99c0.001-0.079,0.001-0.159-0.001-0.238l0.005-0.007c0.079-0.158,0.157-0.316,0.236-0.475
		l0.003-0.004c0.079-0.078,0.157-0.157,0.236-0.235l0.004-0.005c0.079-0.078,0.157-0.157,0.236-0.235l0.004-0.005
		c0.079-0.158,0.158-0.316,0.237-0.476l0.003-0.004c0.079-0.079,0.158-0.158,0.237-0.236l0.002-0.003
		c0.079-0.079,0.158-0.158,0.238-0.237l0.003-0.003c0.079-0.082,0.158-0.163,0.237-0.245C19.013,31.349,19.013,31.192,19.013,31.035
		z"/>
	<path fill-rule="evenodd" clip-rule="evenodd" fill="#231F20" d="M11.731,40.615c-0.761,1.039-1.523,2.078-2.285,3.117
		c-0.095,0.084-0.189,0.168-0.284,0.252l0.004-0.003c-0.082,0.082-0.163,0.164-0.244,0.245l0.008-0.008
		c-0.397-0.08-0.794-0.16-1.192-0.24l0.002,0.003c-0.4-0.161-0.801-0.322-1.201-0.483l0.001,0.003
		c-0.4-0.161-0.801-0.321-1.201-0.482l0,0.002c-0.565-0.316-1.131-0.632-1.696-0.948c1.351,0.434,2.725,0.809,4.044,1.324
		c0.784,0.306,1.208,0.105,1.696-0.512c0.756-0.956,1.62-1.826,2.438-2.732C11.792,40.307,11.761,40.461,11.731,40.615z"/>
	<path fill-rule="evenodd" clip-rule="evenodd" fill="#231F20" d="M11.731,40.615c0.03-0.154,0.061-0.309,0.091-0.463l-0.009,0.008
		c0.083-0.084,0.166-0.167,0.249-0.25l-0.008,0.012c0.083-0.164,0.166-0.327,0.248-0.491l-0.01,0.011
		c0.146-0.074,0.292-0.149,0.437-0.224c0.334-0.33,0.669-0.66,1.004-0.99c-0.373,1.871-0.26,2.007,2.397,2.892
		c0.561,0.398,1.122,0.797,1.682,1.195c-0.24,0-0.48-0.001-0.721-0.001c-1.24-0.621-2.453-1.312-3.736-1.826
		C12.904,40.307,12.278,40.561,11.731,40.615z"/>
	<path fill-rule="evenodd" clip-rule="evenodd" fill="#231F20" d="M3.644,42.072c0.565,0.316,1.131,0.632,1.696,0.948
		c-0.438,0.36-1.217-0.727-1.487,0.35c-0.113-0.14-0.227-0.279-0.339-0.42C3.42,42.653,3.325,42.355,3.23,42.06
		c0.064-0.002,0.128-0.007,0.191-0.014c0.077,0.019,0.155,0.03,0.233,0.035L3.644,42.072z"/>
	<path fill-rule="evenodd" clip-rule="evenodd" fill="#231F20" d="M6.539,43.498c0.4,0.161,0.801,0.322,1.201,0.483
		C7.34,43.82,6.939,43.659,6.539,43.498z"/>
	<path fill-rule="evenodd" clip-rule="evenodd" fill="#231F20" d="M7.738,43.979c0.397,0.08,0.794,0.16,1.192,0.24
		C8.533,44.139,8.136,44.059,7.738,43.979z"/>
	<path fill-rule="evenodd" clip-rule="evenodd" fill="#231F20" d="M5.339,43.019c0.4,0.161,0.8,0.321,1.201,0.482
		C6.14,43.34,5.739,43.18,5.339,43.019z"/>
	<path fill-rule="evenodd" clip-rule="evenodd" fill="#231F20" d="M8.922,44.227c0.082-0.081,0.163-0.163,0.244-0.245
		C9.084,44.063,9.003,44.146,8.922,44.227z"/>
	<path fill-rule="evenodd" clip-rule="evenodd" fill="#231F20" d="M9.162,43.984c0.095-0.084,0.189-0.168,0.284-0.252
		C9.352,43.816,9.257,43.9,9.162,43.984z"/>
	<path fill-rule="evenodd" clip-rule="evenodd" fill="#231F20" d="M17.809,42.312c0.165,0.161,0.33,0.322,0.495,0.483
		C18.139,42.634,17.974,42.473,17.809,42.312z"/>
	<path fill-rule="evenodd" clip-rule="evenodd" fill="#231F20" d="M3.422,42.046c-0.063,0.007-0.127,0.012-0.191,0.014
		c-0.277-0.869-0.554-1.738-0.831-2.606c1.079-0.217,2.183-0.352,3.233-0.667c2.051-0.615,4.064-1.359,6.11-1.996
		c1.122-0.35,2.278-0.588,3.645-0.934c-0.652,0.935-1.153,1.652-1.654,2.371c-0.334,0.33-0.669,0.66-1.003,0.99
		c-0.146,0.074-0.292,0.148-0.438,0.224l0.01-0.011c-0.083,0.164-0.166,0.327-0.248,0.491l0.008-0.012
		c-0.083,0.083-0.166,0.166-0.249,0.25l0.009-0.008c-0.818,0.906-1.682,1.776-2.438,2.732c-0.488,0.617-0.913,0.817-1.696,0.512
		c-1.319-0.516-2.693-0.891-4.044-1.324l0.012,0.009C3.578,42.069,3.5,42.058,3.422,42.046z"/>
	<path fill-rule="evenodd" clip-rule="evenodd" fill="#231F20" d="M18.292,32.234c-0.079,0.159-0.158,0.317-0.237,0.476
		C18.135,32.552,18.214,32.394,18.292,32.234z"/>
	<path fill-rule="evenodd" clip-rule="evenodd" fill="#231F20" d="M17.573,33.194c-0.079,0.158-0.157,0.316-0.236,0.475
		C17.416,33.511,17.494,33.353,17.573,33.194z"/>
	<path fill-rule="evenodd" clip-rule="evenodd" fill="#231F20" d="M19.012,31.506c-0.079,0.082-0.158,0.163-0.237,0.245
		C18.854,31.669,18.933,31.588,19.012,31.506z"/>
	<path fill-rule="evenodd" clip-rule="evenodd" fill="#231F20" d="M18.772,31.754c-0.08,0.079-0.159,0.158-0.238,0.237
		C18.614,31.912,18.693,31.833,18.772,31.754z"/>
	<path fill-rule="evenodd" clip-rule="evenodd" fill="#231F20" d="M18.532,31.994c-0.079,0.078-0.158,0.157-0.237,0.236
		C18.375,32.151,18.454,32.072,18.532,31.994z"/>
	<path fill-rule="evenodd" clip-rule="evenodd" fill="#231F20" d="M18.052,32.715c-0.079,0.078-0.157,0.157-0.236,0.235
		C17.895,32.872,17.973,32.793,18.052,32.715z"/>
	<path fill-rule="evenodd" clip-rule="evenodd" fill="#231F20" d="M17.812,32.955c-0.079,0.078-0.157,0.157-0.236,0.235
		C17.654,33.112,17.733,33.033,17.812,32.955z"/>
	<path fill-rule="evenodd" clip-rule="evenodd" fill="#231F20" d="M17.332,33.676c0.002,0.079,0.003,0.159,0.001,0.238
		C17.333,33.835,17.333,33.755,17.332,33.676z"/>
	<path fill-rule="evenodd" clip-rule="evenodd" fill="#231F20" d="M12.054,39.922c0.083-0.164,0.166-0.327,0.248-0.491
		C12.22,39.595,12.137,39.758,12.054,39.922z"/>
	<path fill-rule="evenodd" clip-rule="evenodd" fill="#231F20" d="M12.292,39.441c0.146-0.075,0.292-0.149,0.438-0.224
		C12.584,39.292,12.438,39.367,12.292,39.441z"/>
	<path fill-rule="evenodd" clip-rule="evenodd" fill="#231F20" d="M11.813,40.16c0.083-0.084,0.166-0.167,0.249-0.25
		C11.979,39.993,11.896,40.076,11.813,40.16z"/>
	<path fill-rule="evenodd" clip-rule="evenodd" fill="#231F20" d="M3.422,42.046c0.078,0.012,0.156,0.023,0.233,0.035
		C3.577,42.076,3.499,42.064,3.422,42.046z"/>
</g>
</svg>
